<svg width="20" height="20" viewBox="0 0 20 20" fill="none" xmlns="http://www.w3.org/2000/svg">
<path d="M3.81252 3.81252C4.04693 3.57818 4.36481 3.44653 4.69627 3.44653C5.02772 3.44653 5.34561 3.57818 5.58002 3.81252L10 8.23252L14.42 3.81252C14.6558 3.58482 14.9715 3.45883 15.2993 3.46167C15.627 3.46452 15.9405 3.59598 16.1723 3.82774C16.404 4.0595 16.5355 4.37302 16.5384 4.70076C16.5412 5.02851 16.4152 5.34426 16.1875 5.58002L11.7675 10L16.1875 14.42C16.4152 14.6558 16.5412 14.9715 16.5384 15.2993C16.5355 15.627 16.404 15.9405 16.1723 16.1723C15.9405 16.404 15.627 16.5355 15.2993 16.5384C14.9715 16.5412 14.6558 16.4152 14.42 16.1875L10 11.7675L5.58002 16.1875C5.34426 16.4152 5.02851 16.5412 4.70076 16.5384C4.37302 16.5355 4.0595 16.404 3.82774 16.1723C3.59598 15.9405 3.46452 15.627 3.46167 15.2993C3.45883 14.9715 3.58482 14.6558 3.81252 14.42L8.23252 10L3.81252 5.58002C3.57818 5.34561 3.44653 5.02772 3.44653 4.69627C3.44653 4.36481 3.57818 4.04693 3.81252 3.81252V3.81252Z" fill="white"/>
</svg>
