<svg width="16" height="16" viewBox="0 0 16 16" fill="none" xmlns="http://www.w3.org/2000/svg">
<path d="M11.4286 14V15.25C11.4286 15.6642 11.0448 16 10.5714 16H0.857143C0.38375 16 0 15.6642 0 15.25V3.75C0 3.33578 0.38375 3 0.857143 3H3.42857V12.25C3.42857 13.215 4.32575 14 5.42857 14H11.4286ZM11.4286 3.25V0H5.42857C4.95518 0 4.57143 0.335781 4.57143 0.75V12.25C4.57143 12.6642 4.95518 13 5.42857 13H15.1429C15.6163 13 16 12.6642 16 12.25V4H12.2857C11.8143 4 11.4286 3.6625 11.4286 3.25ZM15.749 2.28034L13.3939 0.219656C13.2332 0.0790133 13.0151 1.03999e-06 12.7878 0L12.5714 0V3H16V2.81066C16 2.61175 15.9097 2.42099 15.749 2.28034V2.28034Z" fill="#82B4FF"/>
</svg>
