<svg width="20" height="20" viewBox="0 0 20 20" fill="none" xmlns="http://www.w3.org/2000/svg">
<path d="M18.1192 10.2758L10.6192 1.94251C10.3033 1.59084 9.69667 1.59084 9.38084 1.94251L1.88084 10.2758C1.77289 10.3955 1.70203 10.544 1.67688 10.7031C1.65173 10.8623 1.67337 11.0254 1.73917 11.1725C1.87251 11.4733 2.17084 11.6667 2.50001 11.6667H4.16667V17.5C4.16667 17.721 4.25447 17.933 4.41075 18.0893C4.56703 18.2455 4.77899 18.3333 5.00001 18.3333H7.50001C7.72102 18.3333 7.93298 18.2455 8.08926 18.0893C8.24554 17.933 8.33334 17.721 8.33334 17.5V14.1667H11.6667V17.5C11.6667 17.721 11.7545 17.933 11.9108 18.0893C12.067 18.2455 12.279 18.3333 12.5 18.3333H15C15.221 18.3333 15.433 18.2455 15.5893 18.0893C15.7455 17.933 15.8333 17.721 15.8333 17.5V11.6667H17.5C17.6614 11.6674 17.8195 11.6211 17.955 11.5335C18.0906 11.4458 18.1977 11.3207 18.2633 11.1733C18.329 11.0258 18.3503 10.8625 18.3247 10.7031C18.2991 10.5438 18.2277 10.3953 18.1192 10.2758V10.2758Z" fill="#FB6B6B"/>
</svg>
