<svg width="30" height="30" viewBox="0 0 30 30" fill="none" xmlns="http://www.w3.org/2000/svg">
<g clip-path="url(#clip0_52_16)">
<path d="M4.6875 1.875C4.19022 1.875 3.71331 2.07254 3.36167 2.42417C3.01004 2.77581 2.8125 3.25272 2.8125 3.75V5.625C2.8125 6.12228 3.01004 6.59919 3.36167 6.95083C3.71331 7.30246 4.19022 7.5 4.6875 7.5H5.625V24.375C5.625 25.3696 6.02009 26.3234 6.72335 27.0266C7.42661 27.7299 8.38044 28.125 9.375 28.125H20.625C21.6196 28.125 22.5734 27.7299 23.2766 27.0266C23.9799 26.3234 24.375 25.3696 24.375 24.375V7.5H25.3125C25.8098 7.5 26.2867 7.30246 26.6383 6.95083C26.99 6.59919 27.1875 6.12228 27.1875 5.625V3.75C27.1875 3.25272 26.99 2.77581 26.6383 2.42417C26.2867 2.07254 25.8098 1.875 25.3125 1.875H18.75C18.75 1.37772 18.5525 0.900806 18.2008 0.549175C17.8492 0.197544 17.3723 0 16.875 0L13.125 0C12.6277 0 12.1508 0.197544 11.7992 0.549175C11.4475 0.900806 11.25 1.37772 11.25 1.875H4.6875ZM10.3125 9.375C10.5611 9.375 10.7996 9.47377 10.9754 9.64959C11.1512 9.8254 11.25 10.0639 11.25 10.3125V23.4375C11.25 23.6861 11.1512 23.9246 10.9754 24.1004C10.7996 24.2762 10.5611 24.375 10.3125 24.375C10.0639 24.375 9.8254 24.2762 9.64959 24.1004C9.47377 23.9246 9.375 23.6861 9.375 23.4375V10.3125C9.375 10.0639 9.47377 9.8254 9.64959 9.64959C9.8254 9.47377 10.0639 9.375 10.3125 9.375V9.375ZM15 9.375C15.2486 9.375 15.4871 9.47377 15.6629 9.64959C15.8387 9.8254 15.9375 10.0639 15.9375 10.3125V23.4375C15.9375 23.6861 15.8387 23.9246 15.6629 24.1004C15.4871 24.2762 15.2486 24.375 15 24.375C14.7514 24.375 14.5129 24.2762 14.3371 24.1004C14.1613 23.9246 14.0625 23.6861 14.0625 23.4375V10.3125C14.0625 10.0639 14.1613 9.8254 14.3371 9.64959C14.5129 9.47377 14.7514 9.375 15 9.375V9.375ZM20.625 10.3125V23.4375C20.625 23.6861 20.5262 23.9246 20.3504 24.1004C20.1746 24.2762 19.9361 24.375 19.6875 24.375C19.4389 24.375 19.2004 24.2762 19.0246 24.1004C18.8488 23.9246 18.75 23.6861 18.75 23.4375V10.3125C18.75 10.0639 18.8488 9.8254 19.0246 9.64959C19.2004 9.47377 19.4389 9.375 19.6875 9.375C19.9361 9.375 20.1746 9.47377 20.3504 9.64959C20.5262 9.8254 20.625 10.0639 20.625 10.3125V10.3125Z" fill="#FB6B6B"/>
</g>
<defs>
<clipPath id="clip0_52_16">
<rect width="30" height="30" fill="white"/>
</clipPath>
</defs>
</svg>
