<svg width="236" height="49" viewBox="0 0 236 49" fill="none" xmlns="http://www.w3.org/2000/svg">
<path d="M45.2386 23.8083C45.2386 21.7683 46.0786 20.1083 47.7586 18.8283C49.4586 17.5483 51.6786 16.9083 54.4186 16.9083C57.1786 16.9083 59.4286 17.5783 61.1686 18.9183C62.9286 20.2583 63.8086 21.6583 63.8086 23.1183C63.8086 23.2983 63.7386 23.4583 63.5986 23.5983C63.4786 23.7183 63.3386 23.7783 63.1786 23.7783H57.1786C56.7186 23.7783 56.2986 23.6083 55.9186 23.2683C55.5386 22.9283 55.0286 22.7583 54.3886 22.7583C53.4286 22.7583 52.9486 23.0383 52.9486 23.5983C52.9486 23.8983 53.1786 24.1483 53.6386 24.3483C54.1186 24.5483 54.9986 24.7283 56.2786 24.8883C59.2586 25.2683 61.3786 25.9683 62.6386 26.9883C63.9186 27.9883 64.5586 29.5183 64.5586 31.5783C64.5586 33.6183 63.6186 35.2883 61.7386 36.5883C59.8786 37.8683 57.4386 38.5083 54.4186 38.5083C51.3986 38.5083 49.0286 37.8883 47.3086 36.6483C45.5886 35.4083 44.7286 33.8983 44.7286 32.1183C44.7286 31.9383 44.7886 31.7883 44.9086 31.6683C45.0486 31.5283 45.2086 31.4583 45.3886 31.4583H51.0886C51.5086 31.4583 51.9686 31.6583 52.4686 32.0583C52.9886 32.4583 53.6986 32.6583 54.5986 32.6583C56.0986 32.6583 56.8486 32.3783 56.8486 31.8183C56.8486 31.4583 56.5786 31.1883 56.0386 31.0083C55.4986 30.8083 54.4786 30.6083 52.9786 30.4083C47.8186 29.7283 45.2386 27.5283 45.2386 23.8083ZM74.4196 29.3283V37.3983C74.4196 37.6183 74.3396 37.8083 74.1796 37.9683C74.0196 38.1283 73.8296 38.2083 73.6096 38.2083H67.7596C67.5396 38.2083 67.3496 38.1283 67.1896 37.9683C67.0296 37.8083 66.9496 37.6183 66.9496 37.3983V17.7183C66.9496 17.4983 67.0296 17.3083 67.1896 17.1483C67.3496 16.9883 67.5396 16.9083 67.7596 16.9083H73.6096C73.8296 16.9083 74.0196 16.9883 74.1796 17.1483C74.3396 17.3083 74.4196 17.4983 74.4196 17.7183V24.1683C75.5596 22.9283 77.0196 22.3083 78.7996 22.3083C80.5796 22.3083 82.0496 22.8883 83.2096 24.0483C84.3696 25.2083 84.9496 26.8983 84.9496 29.1183V37.3683C84.9496 37.5883 84.8696 37.7783 84.7096 37.9383C84.5496 38.0983 84.3596 38.1783 84.1396 38.1783H78.2596C78.0396 38.1783 77.8496 38.0983 77.6896 37.9383C77.5296 37.7783 77.4496 37.5883 77.4496 37.3683V29.3283C77.4496 28.2283 76.9396 27.6783 75.9196 27.6783C74.9196 27.6783 74.4196 28.2283 74.4196 29.3283ZM87.359 33.7383C87.359 31.0383 89.549 29.3083 93.929 28.5483L97.109 28.0383C97.109 27.4383 97.059 27.0383 96.959 26.8383C96.859 26.6183 96.619 26.5083 96.239 26.5083C95.879 26.5083 95.519 26.6683 95.159 26.9883C94.799 27.3083 94.459 27.4683 94.139 27.4683H89.039C88.599 27.4683 88.379 27.2583 88.379 26.8383C88.379 26.3983 88.529 25.9383 88.829 25.4583C89.149 24.9583 89.599 24.4683 90.179 23.9883C90.779 23.5083 91.609 23.1083 92.669 22.7883C93.749 22.4683 94.949 22.3083 96.269 22.3083C98.949 22.3083 100.959 22.8683 102.299 23.9883C103.639 25.1083 104.309 26.7083 104.309 28.7883V37.3983C104.309 37.6183 104.229 37.8083 104.069 37.9683C103.909 38.1283 103.719 38.2083 103.499 38.2083H98.249C98.029 38.2083 97.839 38.1283 97.679 37.9683C97.519 37.8083 97.439 37.6183 97.439 37.3983V36.5583C96.499 37.8583 95.129 38.5083 93.329 38.5083C91.529 38.5083 90.079 38.0583 88.979 37.1583C87.899 36.2383 87.359 35.0983 87.359 33.7383ZM95.249 34.0683C96.549 34.0683 97.199 33.2883 97.199 31.7283L95.429 32.1183C94.549 32.3183 94.109 32.6883 94.109 33.2283C94.109 33.4683 94.209 33.6683 94.409 33.8283C94.609 33.9883 94.889 34.0683 95.249 34.0683ZM113.715 23.4183V24.4683C115.115 23.2283 116.675 22.6083 118.395 22.6083H119.835C120.055 22.6083 120.245 22.6883 120.405 22.8483C120.565 23.0083 120.645 23.1983 120.645 23.4183V28.0983C120.645 28.3183 120.565 28.5083 120.405 28.6683C120.245 28.8283 120.055 28.9083 119.835 28.9083H115.965C115.425 28.9083 114.995 29.0383 114.675 29.2983C114.375 29.5383 114.205 29.8683 114.165 30.2883V37.3983C114.165 37.6183 114.085 37.8083 113.925 37.9683C113.765 38.1283 113.575 38.2083 113.355 38.2083H107.655C107.435 38.2083 107.245 38.1283 107.085 37.9683C106.925 37.8083 106.845 37.6183 106.845 37.3983V23.4183C106.845 23.1983 106.925 23.0083 107.085 22.8483C107.245 22.6883 107.435 22.6083 107.655 22.6083H112.905C113.125 22.6083 113.315 22.6883 113.475 22.8483C113.635 23.0083 113.715 23.1983 113.715 23.4183ZM138.893 32.1783H129.953V32.3283C129.953 33.5483 130.343 34.1583 131.123 34.1583C131.343 34.1583 131.613 33.9983 131.933 33.6783C132.253 33.3583 132.603 33.1983 132.983 33.1983H138.653C139.093 33.1983 139.313 33.4183 139.313 33.8583C139.313 34.8383 138.573 35.8583 137.093 36.9183C135.633 37.9783 133.643 38.5083 131.123 38.5083C128.623 38.5083 126.573 37.8583 124.973 36.5583C123.393 35.2383 122.603 33.4283 122.603 31.1283V29.6883C122.603 27.5083 123.413 25.7383 125.033 24.3783C126.653 22.9983 128.773 22.3083 131.393 22.3083C134.033 22.3083 136.073 23.0783 137.513 24.6183C138.973 26.1583 139.703 28.1083 139.703 30.4683V31.3683C139.703 31.5883 139.623 31.7783 139.463 31.9383C139.303 32.0983 139.113 32.1783 138.893 32.1783ZM132.353 28.3083C132.353 27.1083 131.953 26.5083 131.153 26.5083C130.353 26.5083 129.953 27.1083 129.953 28.3083V28.4283H132.353V28.3083ZM143.353 31.3683H148.573C148.793 31.3683 148.983 31.4483 149.143 31.6083C149.303 31.7683 149.383 31.9583 149.383 32.1783V37.3983C149.383 37.6183 149.303 37.8083 149.143 37.9683C148.983 38.1283 148.793 38.2083 148.573 38.2083H143.353C143.133 38.2083 142.943 38.1283 142.783 37.9683C142.623 37.8083 142.543 37.6183 142.543 37.3983V32.1783C142.543 31.9583 142.623 31.7683 142.783 31.6083C142.943 31.4483 143.133 31.3683 143.353 31.3683ZM158.852 38.2083H153.482C153.262 38.2083 153.072 38.1283 152.912 37.9683C152.752 37.8083 152.672 37.6183 152.672 37.3983V17.7183C152.672 17.4983 152.752 17.3083 152.912 17.1483C153.072 16.9883 153.262 16.9083 153.482 16.9083H158.852C159.072 16.9083 159.262 16.9883 159.422 17.1483C159.582 17.3083 159.662 17.4983 159.662 17.7183V37.3983C159.662 37.6183 159.582 37.8083 159.422 37.9683C159.262 38.1283 159.072 38.2083 158.852 38.2083ZM168.843 38.2083H163.473C163.253 38.2083 163.063 38.1283 162.903 37.9683C162.743 37.8083 162.663 37.6183 162.663 37.3983V23.4183C162.663 23.1983 162.743 23.0083 162.903 22.8483C163.063 22.6883 163.253 22.6083 163.473 22.6083H168.843C169.063 22.6083 169.253 22.6883 169.413 22.8483C169.573 23.0083 169.653 23.1983 169.653 23.4183V37.3983C169.653 37.6183 169.573 37.8083 169.413 37.9683C169.253 38.1283 169.063 38.2083 168.843 38.2083ZM169.503 16.8183V20.4483C169.503 20.6683 169.423 20.8583 169.263 21.0183C169.103 21.1783 168.913 21.2583 168.693 21.2583H163.623C163.403 21.2583 163.213 21.1783 163.053 21.0183C162.893 20.8583 162.813 20.6683 162.813 20.4483V16.8183C162.813 16.5983 162.893 16.4083 163.053 16.2483C163.213 16.0883 163.403 16.0083 163.623 16.0083H168.693C168.913 16.0083 169.103 16.0883 169.263 16.2483C169.423 16.4083 169.503 16.5983 169.503 16.8183ZM190.323 29.1183V37.3983C190.323 37.6183 190.243 37.8083 190.083 37.9683C189.923 38.1283 189.733 38.2083 189.513 38.2083H183.783C183.563 38.2083 183.373 38.1283 183.213 37.9683C183.053 37.8083 182.973 37.6183 182.973 37.3983V29.3283C182.973 28.2283 182.473 27.6783 181.473 27.6783C180.473 27.6783 179.973 28.2283 179.973 29.3283V37.3983C179.973 37.6183 179.893 37.8083 179.733 37.9683C179.573 38.1283 179.383 38.2083 179.163 38.2083H173.463C173.243 38.2083 173.053 38.1283 172.893 37.9683C172.733 37.8083 172.653 37.6183 172.653 37.3983V23.4183C172.653 23.1983 172.733 23.0083 172.893 22.8483C173.053 22.6883 173.243 22.6083 173.463 22.6083H178.713C178.933 22.6083 179.123 22.6883 179.283 22.8483C179.443 23.0083 179.523 23.1983 179.523 23.4183V24.4083C180.043 23.7883 180.743 23.2883 181.623 22.9083C182.523 22.5083 183.483 22.3083 184.503 22.3083C186.143 22.3083 187.523 22.8883 188.643 24.0483C189.763 25.1883 190.323 26.8783 190.323 29.1183ZM200.031 17.7183V27.4383L202.671 23.1183C202.871 22.7783 203.161 22.6083 203.541 22.6083H209.601C209.801 22.6083 209.971 22.6783 210.111 22.8183C210.251 22.9583 210.321 23.1183 210.321 23.2983C210.321 23.4783 210.271 23.6383 210.171 23.7783L206.061 29.6283L210.921 37.0983C211.001 37.2183 211.041 37.3683 211.041 37.5483C211.041 37.7083 210.971 37.8583 210.831 37.9983C210.691 38.1383 210.521 38.2083 210.321 38.2083H204.021C203.621 38.2083 203.311 38.0383 203.091 37.6983L200.031 32.5983V37.3983C200.031 37.6183 199.951 37.8083 199.791 37.9683C199.631 38.1283 199.441 38.2083 199.221 38.2083H193.971C193.751 38.2083 193.561 38.1283 193.401 37.9683C193.241 37.8083 193.161 37.6183 193.161 37.3983V17.7183C193.161 17.4983 193.241 17.3083 193.401 17.1483C193.561 16.9883 193.751 16.9083 193.971 16.9083H199.221C199.441 16.9083 199.631 16.9883 199.791 17.1483C199.951 17.3083 200.031 17.4983 200.031 17.7183ZM221.158 33.8883C221.158 33.6883 221.108 33.5283 221.008 33.4083C220.748 33.0883 219.788 32.7783 218.128 32.4783C216.468 32.1583 215.118 31.6083 214.078 30.8283C213.058 30.0283 212.548 28.9183 212.548 27.4983C212.548 26.0783 213.228 24.8583 214.588 23.8383C215.948 22.8183 217.778 22.3083 220.078 22.3083C222.398 22.3083 224.298 22.7883 225.778 23.7483C227.258 24.7083 227.998 25.6783 227.998 26.6583C227.998 26.8783 227.928 27.0683 227.788 27.2283C227.668 27.3883 227.518 27.4683 227.338 27.4683H222.298C221.998 27.4683 221.628 27.3083 221.188 26.9883C220.748 26.6683 220.418 26.5083 220.198 26.5083C219.738 26.5083 219.508 26.6683 219.508 26.9883C219.508 27.1883 219.558 27.3483 219.658 27.4683C219.918 27.7683 221.008 28.0583 222.928 28.3383C224.848 28.6183 226.278 29.2383 227.218 30.1983C228.178 31.1383 228.658 32.1883 228.658 33.3483C228.658 34.9683 227.928 36.2383 226.468 37.1583C225.008 38.0783 222.938 38.5383 220.258 38.5383C218.838 38.5383 217.578 38.3783 216.478 38.0583C215.378 37.7383 214.538 37.3383 213.958 36.8583C212.818 35.9183 212.248 35.0383 212.248 34.2183C212.248 33.9983 212.318 33.8083 212.458 33.6483C212.598 33.4883 212.768 33.4083 212.968 33.4083H218.188C218.468 33.4083 218.828 33.5683 219.268 33.8883C219.728 34.1883 220.158 34.3383 220.558 34.3383C220.958 34.3383 221.158 34.1883 221.158 33.8883Z" fill="white"/>
<path d="M27.3976 21.3477C25.7407 19.676 23.4938 18.7369 21.151 18.7369C18.8082 18.7369 16.5614 19.676 14.9044 21.3477L8.65583 27.6523C6.99887 29.3247 6.06799 31.5929 6.06799 33.958C6.06799 36.3231 6.99887 38.5913 8.65583 40.2637C10.3128 41.9361 12.5601 42.8756 14.9034 42.8756C17.2467 42.8756 19.4941 41.9361 21.151 40.2637L24.2743 37.1114" stroke="#F0DC26" stroke-width="5" stroke-linecap="round" stroke-linejoin="round"/>
<path d="M21.151 27.6523C22.8079 29.324 25.0548 30.263 27.3976 30.263C29.7404 30.263 31.9872 29.324 33.6442 27.6523L39.8928 21.3477C41.5497 19.6753 42.4806 17.4071 42.4806 15.042C42.4806 12.6769 41.5497 10.4087 39.8928 8.73629C38.2358 7.06392 35.9885 6.12439 33.6452 6.12439C31.3019 6.12439 29.0545 7.06392 27.3976 8.73629L24.2743 11.8886" stroke="#F0DC26" stroke-width="5" stroke-linecap="round" stroke-linejoin="round"/>
</svg>
