<svg width="235" height="58" viewBox="0 0 235 58" fill="none" xmlns="http://www.w3.org/2000/svg">
<path d="M77.714 57.5C76.334 57.5 74.9693 57.1013 73.62 56.304C72.3013 55.5373 70.6147 54.3413 68.56 52.716C67.0267 51.4893 65.708 50.4927 64.604 49.726C63.5307 48.99 62.35 48.3613 61.062 47.84C59.8047 47.3187 58.5167 47.058 57.198 47.058C56.738 47.058 56.3853 47.0733 56.14 47.104L62.994 15.226C60.9393 16.054 59.3447 17.3267 58.21 19.044C57.106 20.7307 56.554 22.8007 56.554 25.254C56.554 26.3887 56.6613 27.186 56.876 27.646C57.0907 28.0753 57.198 28.3207 57.198 28.382C55.542 28.382 54.3 28.0447 53.472 27.37C52.6747 26.6647 52.276 25.5147 52.276 23.92C52.276 21.9573 53.0733 20.056 54.668 18.216C56.2933 16.3453 58.3633 14.8427 60.878 13.708C63.3927 12.5427 65.9073 11.96 68.422 11.96C68.8513 11.96 69.4647 11.9907 70.262 12.052L63.178 45.08C64.0367 45.2947 64.9107 45.6013 65.8 46C66.72 46.4293 67.824 46.9967 69.112 47.702C71.1053 48.7753 72.8073 49.588 74.218 50.14C75.6287 50.7227 77.1007 51.014 78.634 51.014C80.014 51.014 81.302 50.7687 82.498 50.278C82.2527 52.5167 81.7007 54.28 80.842 55.568C80.014 56.856 78.9713 57.5 77.714 57.5ZM77.1117 20.516C76.0997 20.516 75.241 20.1633 74.5357 19.458C73.8304 18.7527 73.4777 17.894 73.4777 16.882C73.4777 15.87 73.8304 15.0113 74.5357 14.306C75.241 13.57 76.0997 13.202 77.1117 13.202C78.1237 13.202 78.9824 13.57 79.6877 14.306C80.4237 15.0113 80.7917 15.87 80.7917 16.882C80.7917 17.894 80.4237 18.7527 79.6877 19.458C78.9824 20.1633 78.1237 20.516 77.1117 20.516ZM73.9837 46.276C72.5117 46.276 71.3157 45.816 70.3957 44.896C69.5064 43.976 69.0617 42.596 69.0617 40.756C69.0617 39.9893 69.1844 38.9927 69.4297 37.766L72.5577 23H79.1817L75.8697 38.64C75.747 39.1 75.6857 39.5907 75.6857 40.112C75.6857 40.7253 75.8237 41.17 76.0997 41.446C76.4064 41.6913 76.897 41.814 77.5717 41.814C78.461 41.814 79.289 41.446 80.0557 40.71C80.8224 39.9433 81.3744 38.962 81.7117 37.766H83.6437C82.509 41.078 81.0524 43.332 79.2737 44.528C77.495 45.6933 75.7317 46.276 73.9837 46.276ZM98.2994 46.276C96.4287 46.276 95.0487 45.7853 94.1594 44.804C93.3007 43.792 92.8714 42.55 92.8714 41.078C92.8714 40.434 92.948 39.7133 93.1014 38.916C93.2547 38.088 93.408 37.2907 93.5614 36.524C93.7454 35.7573 93.868 35.2667 93.9294 35.052C94.1747 33.9787 94.4047 32.9207 94.6194 31.878C94.834 30.8353 94.9414 29.992 94.9414 29.348C94.9414 27.784 94.3894 27.002 93.2854 27.002C92.488 27.002 91.7827 27.4007 91.1694 28.198C90.556 28.9647 90.0654 29.9767 89.6974 31.234L86.5694 46H79.9454L84.8214 23H91.4454L90.9394 25.392C92.4727 23.6747 94.2667 22.816 96.3214 22.816C97.8854 22.816 99.1274 23.2453 100.047 24.104C100.967 24.9627 101.427 26.266 101.427 28.014C101.427 28.9033 101.32 29.9 101.105 31.004C100.891 32.0773 100.584 33.396 100.185 34.96C99.94 35.9107 99.71 36.846 99.4954 37.766C99.3114 38.6553 99.2194 39.3607 99.2194 39.882C99.2194 40.4953 99.3574 40.9707 99.6334 41.308C99.9094 41.6453 100.385 41.814 101.059 41.814C101.979 41.814 102.715 41.492 103.267 40.848C103.819 40.1733 104.371 39.146 104.923 37.766H106.855C105.721 41.1393 104.402 43.4087 102.899 44.574C101.427 45.7087 99.894 46.276 98.2994 46.276ZM122.214 46.276C120.313 46.276 118.871 45.8313 117.89 44.942C116.909 44.022 116.418 42.7187 116.418 41.032C116.418 40.296 116.51 39.4987 116.694 38.64L117.062 36.846C117.185 36.3247 117.246 35.7573 117.246 35.144C117.246 33.672 116.694 32.936 115.59 32.936C115.099 32.936 114.578 33.074 114.026 33.35C113.505 33.626 112.891 34.0553 112.186 34.638L109.794 46H103.17L109.84 14.72L116.648 13.8L113.198 29.992L122.076 23H126.63L117.43 29.394C117.89 29.2713 118.396 29.21 118.948 29.21C120.604 29.21 121.861 29.716 122.72 30.728C123.579 31.74 124.008 33.028 124.008 34.592C124.008 35.236 123.947 35.8187 123.824 36.34L123.318 38.64C123.165 39.192 123.088 39.6827 123.088 40.112C123.088 41.2467 123.686 41.814 124.882 41.814C125.557 41.814 125.986 41.768 126.17 41.676C126.354 41.584 126.461 41.538 126.492 41.538C126.431 42.55 126.139 43.4087 125.618 44.114C125.127 44.8193 124.545 45.356 123.87 45.724C123.226 46.092 122.674 46.276 122.214 46.276ZM137.885 46.828C135.953 46.828 134.251 46.4907 132.779 45.816C131.307 45.1413 130.173 44.206 129.375 43.01C128.578 41.7833 128.179 40.3727 128.179 38.778C128.179 37.4287 128.455 36.202 129.007 35.098C129.59 33.994 130.357 33.12 131.307 32.476C132.289 31.832 133.362 31.51 134.527 31.51C135.601 31.51 136.505 31.786 137.241 32.338C137.977 32.8593 138.437 33.5953 138.621 34.546C137.027 34.546 135.754 34.9753 134.803 35.834C133.853 36.662 133.377 37.7967 133.377 39.238C133.377 40.5567 133.776 41.6147 134.573 42.412C135.371 43.2093 136.429 43.608 137.747 43.608C139.373 43.608 140.707 43.0713 141.749 41.998C142.823 40.894 143.359 39.514 143.359 37.858C143.359 36.4167 142.961 35.052 142.163 33.764C141.366 32.476 140.17 30.912 138.575 29.072C136.919 27.1707 135.662 25.5453 134.803 24.196C133.975 22.816 133.561 21.3133 133.561 19.688C133.561 18.0933 134.006 16.6673 134.895 15.41C135.785 14.122 137.011 13.11 138.575 12.374C140.139 11.638 141.903 11.27 143.865 11.27C146.349 11.27 148.327 11.8527 149.799 13.018C151.302 14.1833 152.053 15.7473 152.053 17.71C152.053 18.998 151.731 20.0407 151.087 20.838C150.443 21.6353 149.6 22.034 148.557 22.034C147.392 22.034 146.457 21.5587 145.751 20.608C146.334 20.1787 146.794 19.6113 147.131 18.906C147.469 18.2007 147.637 17.4647 147.637 16.698C147.637 15.7167 147.346 14.9347 146.763 14.352C146.181 13.7693 145.383 13.478 144.371 13.478C143.145 13.478 142.133 13.9227 141.335 14.812C140.569 15.6707 140.185 16.7747 140.185 18.124C140.185 19.3507 140.538 20.5007 141.243 21.574C141.949 22.6167 143.053 23.966 144.555 25.622C145.782 26.9407 146.763 28.0753 147.499 29.026C148.266 29.9767 148.91 31.0807 149.431 32.338C149.983 33.5647 150.259 34.8987 150.259 36.34C150.259 38.3027 149.707 40.0813 148.603 41.676C147.53 43.2707 146.043 44.528 144.141 45.448C142.271 46.368 140.185 46.828 137.885 46.828ZM169.456 46.276C167.585 46.276 166.205 45.7853 165.316 44.804C164.457 43.792 164.028 42.55 164.028 41.078C164.028 40.434 164.104 39.7133 164.258 38.916C164.411 38.088 164.564 37.2907 164.718 36.524C164.902 35.7573 165.024 35.2667 165.086 35.052C165.331 33.9787 165.561 32.9207 165.776 31.878C165.99 30.8353 166.098 29.992 166.098 29.348C166.098 27.784 165.546 27.002 164.442 27.002C163.644 27.002 162.939 27.4007 162.326 28.198C161.712 28.9647 161.222 29.9767 160.854 31.234L157.726 46H151.102L157.772 14.72L164.58 13.8L162.096 25.392C163.629 23.6747 165.423 22.816 167.478 22.816C169.042 22.816 170.284 23.2453 171.204 24.104C172.124 24.9627 172.584 26.266 172.584 28.014C172.584 28.9033 172.476 29.9 172.262 31.004C172.047 32.0773 171.74 33.396 171.342 34.96C171.096 35.9107 170.866 36.846 170.652 37.766C170.468 38.6553 170.376 39.3607 170.376 39.882C170.376 40.4953 170.514 40.9707 170.79 41.308C171.066 41.6453 171.541 41.814 172.216 41.814C173.136 41.814 173.872 41.492 174.424 40.848C174.976 40.1733 175.528 39.146 176.08 37.766H178.012C176.877 41.1393 175.558 43.4087 174.056 44.574C172.584 45.7087 171.05 46.276 169.456 46.276ZM181.594 46.276C179.846 46.276 178.39 45.678 177.224 44.482C176.059 43.286 175.476 41.4153 175.476 38.87C175.476 36.6007 175.921 34.224 176.81 31.74C177.73 29.2253 179.08 27.1093 180.858 25.392C182.668 23.644 184.814 22.77 187.298 22.77C188.556 22.77 189.491 22.9847 190.104 23.414C190.718 23.8433 191.024 24.4107 191.024 25.116V25.438L191.53 23H198.154L194.842 38.64C194.72 39.1 194.658 39.5907 194.658 40.112C194.658 41.4307 195.287 42.09 196.544 42.09C197.403 42.09 198.139 41.6913 198.752 40.894C199.396 40.0967 199.902 39.054 200.27 37.766H202.202C201.068 41.078 199.657 43.332 197.97 44.528C196.314 45.6933 194.643 46.276 192.956 46.276C191.668 46.276 190.626 45.9233 189.828 45.218C189.062 44.482 188.602 43.424 188.448 42.044C187.559 43.3013 186.562 44.3287 185.458 45.126C184.385 45.8927 183.097 46.276 181.594 46.276ZM184.584 41.814C185.351 41.814 186.102 41.4613 186.838 40.756C187.605 40.02 188.126 39.0233 188.402 37.766L190.61 27.37C190.61 26.9713 190.457 26.588 190.15 26.22C189.844 25.8213 189.368 25.622 188.724 25.622C187.498 25.622 186.394 26.3427 185.412 27.784C184.431 29.1947 183.664 30.912 183.112 32.936C182.56 34.9293 182.284 36.6927 182.284 38.226C182.284 39.7593 182.499 40.7407 182.928 41.17C183.388 41.5993 183.94 41.814 184.584 41.814ZM203.415 23H210.039L209.441 25.852C210.484 24.932 211.419 24.2267 212.247 23.736C213.106 23.2453 214.026 23 215.007 23C215.988 23 216.755 23.3373 217.307 24.012C217.89 24.6867 218.181 25.4993 218.181 26.45C218.181 27.3393 217.89 28.1213 217.307 28.796C216.724 29.4707 215.912 29.808 214.869 29.808C214.194 29.808 213.734 29.6547 213.489 29.348C213.274 29.0107 213.106 28.5353 212.983 27.922C212.891 27.5233 212.799 27.232 212.707 27.048C212.615 26.864 212.446 26.772 212.201 26.772C211.557 26.772 211.005 26.91 210.545 27.186C210.116 27.4313 209.548 27.876 208.843 28.52L205.163 46H198.539L203.415 23ZM224.068 46.276C221.829 46.276 220.081 45.6933 218.824 44.528C217.567 43.332 216.938 41.4767 216.938 38.962C216.938 36.846 217.352 34.5153 218.18 31.97C219.008 29.4247 220.357 27.232 222.228 25.392C224.099 23.5213 226.475 22.586 229.358 22.586C232.731 22.586 234.418 24.058 234.418 27.002C234.418 28.7193 233.927 30.2987 232.946 31.74C231.965 33.1813 230.661 34.3467 229.036 35.236C227.411 36.0947 225.678 36.5853 223.838 36.708C223.777 37.3827 223.746 37.8427 223.746 38.088C223.746 40.6333 224.697 41.906 226.598 41.906C227.457 41.906 228.377 41.676 229.358 41.216C230.339 40.756 231.229 40.1733 232.026 39.468C231.198 44.0067 228.545 46.276 224.068 46.276ZM224.16 34.5C225.325 34.4693 226.414 34.086 227.426 33.35C228.469 32.614 229.297 31.6787 229.91 30.544C230.554 29.3787 230.876 28.1673 230.876 26.91C230.876 25.6527 230.493 25.024 229.726 25.024C228.653 25.024 227.579 26.0053 226.506 27.968C225.463 29.9 224.681 32.0773 224.16 34.5Z" fill="white"/>
<path d="M29.3455 28.6546C27.5708 26.8807 25.1642 25.8841 22.6548 25.8841C20.1455 25.8841 17.7389 26.8807 15.9642 28.6546L9.27132 35.3453C7.49656 37.1201 6.49951 39.5272 6.49951 42.0371C6.49951 44.547 7.49656 46.9541 9.27132 48.7288C11.0461 50.5036 13.4532 51.5006 15.9631 51.5006C18.473 51.5006 20.8801 50.5036 22.6548 48.7288L26.0002 45.3835" stroke="#F0DC26" stroke-width="6" stroke-linecap="round" stroke-linejoin="round"/>
<path d="M22.6548 35.3453C24.4295 37.1193 26.8361 38.1159 29.3455 38.1159C31.8548 38.1159 34.2614 37.1193 36.0361 35.3453L42.729 28.6546C44.5037 26.8799 45.5008 24.4728 45.5008 21.9629C45.5008 19.453 44.5037 17.0459 42.729 15.2711C40.9542 13.4964 38.5471 12.4993 36.0372 12.4993C33.5273 12.4993 31.1202 13.4964 29.3455 15.2711L26.0001 18.6165" stroke="#F0DC26" stroke-width="6" stroke-linecap="round" stroke-linejoin="round"/>
</svg>
