<svg width="350" height="75" viewBox="0 0 350 75" fill="none" xmlns="http://www.w3.org/2000/svg">
<path d="M67.162 35.92C67.162 32.792 68.45 30.2467 71.026 28.284C73.6327 26.3213 77.0367 25.34 81.238 25.34C85.47 25.34 88.92 26.3673 91.588 28.422C94.2867 30.4767 95.636 32.6233 95.636 34.862C95.636 35.138 95.5287 35.3833 95.314 35.598C95.13 35.782 94.9153 35.874 94.67 35.874H85.47C84.7647 35.874 84.1207 35.6133 83.538 35.092C82.9553 34.5707 82.1733 34.31 81.192 34.31C79.72 34.31 78.984 34.7393 78.984 35.598C78.984 36.058 79.3367 36.4413 80.042 36.748C80.778 37.0547 82.1273 37.3307 84.09 37.576C88.6593 38.1587 91.91 39.232 93.842 40.796C95.8047 42.3293 96.786 44.6753 96.786 47.834C96.786 50.962 95.3447 53.5227 92.462 55.516C89.61 57.4787 85.8687 58.46 81.238 58.46C76.6073 58.46 72.9733 57.5093 70.336 55.608C67.6987 53.7067 66.38 51.3913 66.38 48.662C66.38 48.386 66.472 48.156 66.656 47.972C66.8707 47.7573 67.116 47.65 67.392 47.65H76.132C76.776 47.65 77.4813 47.9567 78.248 48.57C79.0453 49.1833 80.134 49.49 81.514 49.49C83.814 49.49 84.964 49.0607 84.964 48.202C84.964 47.65 84.55 47.236 83.722 46.96C82.894 46.6533 81.33 46.3467 79.03 46.04C71.118 44.9973 67.162 41.624 67.162 35.92ZM111.906 44.384V56.758C111.906 57.0953 111.784 57.3867 111.538 57.632C111.293 57.8773 111.002 58 110.664 58H101.694C101.357 58 101.066 57.8773 100.82 57.632C100.575 57.3867 100.452 57.0953 100.452 56.758V26.582C100.452 26.2447 100.575 25.9533 100.82 25.708C101.066 25.4627 101.357 25.34 101.694 25.34H110.664C111.002 25.34 111.293 25.4627 111.538 25.708C111.784 25.9533 111.906 26.2447 111.906 26.582V36.472C113.654 34.5707 115.893 33.62 118.622 33.62C121.352 33.62 123.606 34.5093 125.384 36.288C127.163 38.0667 128.052 40.658 128.052 44.062V56.712C128.052 57.0493 127.93 57.3407 127.684 57.586C127.439 57.8313 127.148 57.954 126.81 57.954H117.794C117.457 57.954 117.166 57.8313 116.92 57.586C116.675 57.3407 116.552 57.0493 116.552 56.712V44.384C116.552 42.6973 115.77 41.854 114.206 41.854C112.673 41.854 111.906 42.6973 111.906 44.384ZM131.747 51.146C131.747 47.006 135.105 44.3533 141.821 43.188L146.697 42.406C146.697 41.486 146.62 40.8727 146.467 40.566C146.313 40.2287 145.945 40.06 145.363 40.06C144.811 40.06 144.259 40.3053 143.707 40.796C143.155 41.2867 142.633 41.532 142.143 41.532H134.323C133.648 41.532 133.311 41.21 133.311 40.566C133.311 39.8913 133.541 39.186 134.001 38.45C134.491 37.6833 135.181 36.932 136.071 36.196C136.991 35.46 138.263 34.8467 139.889 34.356C141.545 33.8653 143.385 33.62 145.409 33.62C149.518 33.62 152.6 34.4787 154.655 36.196C156.709 37.9133 157.737 40.3667 157.737 43.556V56.758C157.737 57.0953 157.614 57.3867 157.369 57.632C157.123 57.8773 156.832 58 156.495 58H148.445C148.107 58 147.816 57.8773 147.571 57.632C147.325 57.3867 147.203 57.0953 147.203 56.758V55.47C145.761 57.4633 143.661 58.46 140.901 58.46C138.141 58.46 135.917 57.77 134.231 56.39C132.575 54.9793 131.747 53.2313 131.747 51.146ZM143.845 51.652C145.838 51.652 146.835 50.456 146.835 48.064L144.121 48.662C142.771 48.9687 142.097 49.536 142.097 50.364C142.097 50.732 142.25 51.0387 142.557 51.284C142.863 51.5293 143.293 51.652 143.845 51.652ZM172.159 35.322V36.932C174.306 35.0307 176.698 34.08 179.335 34.08H181.543C181.88 34.08 182.172 34.2027 182.417 34.448C182.662 34.6933 182.785 34.9847 182.785 35.322V42.498C182.785 42.8353 182.662 43.1267 182.417 43.372C182.172 43.6173 181.88 43.74 181.543 43.74H175.609C174.781 43.74 174.122 43.9393 173.631 44.338C173.171 44.706 172.91 45.212 172.849 45.856V56.758C172.849 57.0953 172.726 57.3867 172.481 57.632C172.236 57.8773 171.944 58 171.607 58H162.867C162.53 58 162.238 57.8773 161.993 57.632C161.748 57.3867 161.625 57.0953 161.625 56.758V35.322C161.625 34.9847 161.748 34.6933 161.993 34.448C162.238 34.2027 162.53 34.08 162.867 34.08H170.917C171.254 34.08 171.546 34.2027 171.791 34.448C172.036 34.6933 172.159 34.9847 172.159 35.322ZM210.766 48.754H197.058V48.984C197.058 50.8547 197.656 51.79 198.852 51.79C199.189 51.79 199.603 51.5447 200.094 51.054C200.584 50.5633 201.121 50.318 201.704 50.318H210.398C211.072 50.318 211.41 50.6553 211.41 51.33C211.41 52.8327 210.275 54.3967 208.006 56.022C205.767 57.6473 202.716 58.46 198.852 58.46C195.018 58.46 191.875 57.4633 189.422 55.47C186.999 53.446 185.788 50.6707 185.788 47.144V44.936C185.788 41.5933 187.03 38.8793 189.514 36.794C191.998 34.678 195.248 33.62 199.266 33.62C203.314 33.62 206.442 34.8007 208.65 37.162C210.888 39.5233 212.008 42.5133 212.008 46.132V47.512C212.008 47.8493 211.885 48.1407 211.64 48.386C211.394 48.6313 211.103 48.754 210.766 48.754ZM200.738 42.82C200.738 40.98 200.124 40.06 198.898 40.06C197.671 40.06 197.058 40.98 197.058 42.82V43.004H200.738V42.82ZM217.604 47.512H225.608C225.945 47.512 226.236 47.6347 226.482 47.88C226.727 48.1253 226.85 48.4167 226.85 48.754V56.758C226.85 57.0953 226.727 57.3867 226.482 57.632C226.236 57.8773 225.945 58 225.608 58H217.604C217.266 58 216.975 57.8773 216.73 57.632C216.484 57.3867 216.362 57.0953 216.362 56.758V48.754C216.362 48.4167 216.484 48.1253 216.73 47.88C216.975 47.6347 217.266 47.512 217.604 47.512ZM241.37 58H233.136C232.798 58 232.507 57.8773 232.262 57.632C232.016 57.3867 231.894 57.0953 231.894 56.758V26.582C231.894 26.2447 232.016 25.9533 232.262 25.708C232.507 25.4627 232.798 25.34 233.136 25.34H241.37C241.707 25.34 241.998 25.4627 242.244 25.708C242.489 25.9533 242.612 26.2447 242.612 26.582V56.758C242.612 57.0953 242.489 57.3867 242.244 57.632C241.998 57.8773 241.707 58 241.37 58ZM256.688 58H248.454C248.117 58 247.825 57.8773 247.58 57.632C247.335 57.3867 247.212 57.0953 247.212 56.758V35.322C247.212 34.9847 247.335 34.6933 247.58 34.448C247.825 34.2027 248.117 34.08 248.454 34.08H256.688C257.025 34.08 257.317 34.2027 257.562 34.448C257.807 34.6933 257.93 34.9847 257.93 35.322V56.758C257.93 57.0953 257.807 57.3867 257.562 57.632C257.317 57.8773 257.025 58 256.688 58ZM257.7 25.202V30.768C257.7 31.1053 257.577 31.3967 257.332 31.642C257.087 31.8873 256.795 32.01 256.458 32.01H248.684C248.347 32.01 248.055 31.8873 247.81 31.642C247.565 31.3967 247.442 31.1053 247.442 30.768V25.202C247.442 24.8647 247.565 24.5733 247.81 24.328C248.055 24.0827 248.347 23.96 248.684 23.96H256.458C256.795 23.96 257.087 24.0827 257.332 24.328C257.577 24.5733 257.7 24.8647 257.7 25.202ZM289.624 44.062V56.758C289.624 57.0953 289.502 57.3867 289.256 57.632C289.011 57.8773 288.72 58 288.382 58H279.596C279.259 58 278.968 57.8773 278.722 57.632C278.477 57.3867 278.354 57.0953 278.354 56.758V44.384C278.354 42.6973 277.588 41.854 276.054 41.854C274.521 41.854 273.754 42.6973 273.754 44.384V56.758C273.754 57.0953 273.632 57.3867 273.386 57.632C273.141 57.8773 272.85 58 272.512 58H263.772C263.435 58 263.144 57.8773 262.898 57.632C262.653 57.3867 262.53 57.0953 262.53 56.758V35.322C262.53 34.9847 262.653 34.6933 262.898 34.448C263.144 34.2027 263.435 34.08 263.772 34.08H271.822C272.16 34.08 272.451 34.2027 272.696 34.448C272.942 34.6933 273.064 34.9847 273.064 35.322V36.84C273.862 35.8893 274.935 35.1227 276.284 34.54C277.664 33.9267 279.136 33.62 280.7 33.62C283.215 33.62 285.331 34.5093 287.048 36.288C288.766 38.036 289.624 40.6273 289.624 44.062ZM304.51 26.582V41.486L308.558 34.862C308.864 34.3407 309.309 34.08 309.892 34.08H319.184C319.49 34.08 319.751 34.1873 319.966 34.402C320.18 34.6167 320.288 34.862 320.288 35.138C320.288 35.414 320.211 35.6593 320.058 35.874L313.756 44.844L321.208 56.298C321.33 56.482 321.392 56.712 321.392 56.988C321.392 57.2333 321.284 57.4633 321.07 57.678C320.855 57.8927 320.594 58 320.288 58H310.628C310.014 58 309.539 57.7393 309.202 57.218L304.51 49.398V56.758C304.51 57.0953 304.387 57.3867 304.142 57.632C303.896 57.8773 303.605 58 303.268 58H295.218C294.88 58 294.589 57.8773 294.344 57.632C294.098 57.3867 293.976 57.0953 293.976 56.758V26.582C293.976 26.2447 294.098 25.9533 294.344 25.708C294.589 25.4627 294.88 25.34 295.218 25.34H303.268C303.605 25.34 303.896 25.4627 304.142 25.708C304.387 25.9533 304.51 26.2447 304.51 26.582ZM336.905 51.376C336.905 51.0693 336.829 50.824 336.675 50.64C336.277 50.1493 334.805 49.674 332.259 49.214C329.714 48.7233 327.644 47.88 326.049 46.684C324.485 45.4573 323.703 43.7553 323.703 41.578C323.703 39.4007 324.746 37.53 326.831 35.966C328.917 34.402 331.723 33.62 335.249 33.62C338.807 33.62 341.72 34.356 343.989 35.828C346.259 37.3 347.393 38.7873 347.393 40.29C347.393 40.6273 347.286 40.9187 347.071 41.164C346.887 41.4093 346.657 41.532 346.381 41.532H338.653C338.193 41.532 337.626 41.2867 336.951 40.796C336.277 40.3053 335.771 40.06 335.433 40.06C334.728 40.06 334.375 40.3053 334.375 40.796C334.375 41.1027 334.452 41.348 334.605 41.532C335.004 41.992 336.675 42.4367 339.619 42.866C342.563 43.2953 344.756 44.246 346.197 45.718C347.669 47.1593 348.405 48.7693 348.405 50.548C348.405 53.032 347.286 54.9793 345.047 56.39C342.809 57.8007 339.635 58.506 335.525 58.506C333.348 58.506 331.416 58.2607 329.729 57.77C328.043 57.2793 326.755 56.666 325.865 55.93C324.117 54.4887 323.243 53.1393 323.243 51.882C323.243 51.5447 323.351 51.2533 323.565 51.008C323.78 50.7627 324.041 50.64 324.347 50.64H332.351C332.781 50.64 333.333 50.8853 334.007 51.376C334.713 51.836 335.372 52.066 335.985 52.066C336.599 52.066 336.905 51.836 336.905 51.376Z" fill="white"/>
<g filter="url(#filter0_d_53_25)">
<path d="M40.632 31.368C38.1747 28.9117 34.8424 27.5319 31.368 27.5319C27.8935 27.5319 24.5613 28.9117 22.104 31.368L12.837 40.632C10.3796 43.0894 8.99908 46.4223 8.99908 49.8975C8.99908 53.3727 10.3796 56.7056 12.837 59.163C15.2943 61.6204 18.6272 63.0009 22.1025 63.0009C25.5777 63.0009 28.9106 61.6204 31.368 59.163L36 54.531" stroke="#F0DC26" stroke-width="8" stroke-linecap="round" stroke-linejoin="round"/>
<path d="M31.368 40.632C33.8253 43.0883 37.1575 44.4682 40.632 44.4682C44.1064 44.4682 47.4387 43.0883 49.896 40.632L59.163 31.368C61.6203 28.9106 63.0009 25.5777 63.0009 22.1025C63.0009 18.6273 61.6203 15.2944 59.163 12.837C56.7056 10.3796 53.3727 8.99911 49.8975 8.99911C46.4222 8.99911 43.0893 10.3796 40.632 12.837L36 17.469" stroke="#F0DC26" stroke-width="8" stroke-linecap="round" stroke-linejoin="round"/>
</g>
<defs>
<filter id="filter0_d_53_25" x="-4" y="0" width="80" height="80" filterUnits="userSpaceOnUse" color-interpolation-filters="sRGB">
<feFlood flood-opacity="0" result="BackgroundImageFix"/>
<feColorMatrix in="SourceAlpha" type="matrix" values="0 0 0 0 0 0 0 0 0 0 0 0 0 0 0 0 0 0 127 0" result="hardAlpha"/>
<feOffset dy="4"/>
<feGaussianBlur stdDeviation="2"/>
<feComposite in2="hardAlpha" operator="out"/>
<feColorMatrix type="matrix" values="0 0 0 0 0 0 0 0 0 0 0 0 0 0 0 0 0 0 0.25 0"/>
<feBlend mode="normal" in2="BackgroundImageFix" result="effect1_dropShadow_53_25"/>
<feBlend mode="normal" in="SourceGraphic" in2="effect1_dropShadow_53_25" result="shape"/>
</filter>
</defs>
</svg>
