<svg width="150" height="38" viewBox="0 0 150 38" fill="none" xmlns="http://www.w3.org/2000/svg">
<path d="M53.652 35C52.812 35 51.9813 34.7573 51.16 34.272C50.3573 33.8053 49.3307 33.0773 48.08 32.088C47.1467 31.3413 46.344 30.7347 45.672 30.268C45.0187 29.82 44.3 29.4373 43.516 29.12C42.7507 28.8027 41.9667 28.644 41.164 28.644C40.884 28.644 40.6693 28.6533 40.52 28.672L44.692 9.268C43.4413 9.772 42.4707 10.5467 41.78 11.592C41.108 12.6187 40.772 13.8787 40.772 15.372C40.772 16.0627 40.8373 16.548 40.968 16.828C41.0987 17.0893 41.164 17.2387 41.164 17.276C40.156 17.276 39.4 17.0707 38.896 16.66C38.4107 16.2307 38.168 15.5307 38.168 14.56C38.168 13.3653 38.6533 12.208 39.624 11.088C40.6133 9.94933 41.8733 9.03467 43.404 8.344C44.9347 7.63467 46.4653 7.28 47.996 7.28C48.2573 7.28 48.6307 7.29867 49.116 7.336L44.804 27.44C45.3267 27.5707 45.8587 27.7573 46.4 28C46.96 28.2613 47.632 28.6067 48.416 29.036C49.6293 29.6893 50.6653 30.184 51.524 30.52C52.3827 30.8747 53.2787 31.052 54.212 31.052C55.052 31.052 55.836 30.9027 56.564 30.604C56.4147 31.9667 56.0787 33.04 55.556 33.824C55.052 34.608 54.4173 35 53.652 35ZM53.2854 12.488C52.6694 12.488 52.1467 12.2733 51.7174 11.844C51.288 11.4147 51.0734 10.892 51.0734 10.276C51.0734 9.66 51.288 9.13733 51.7174 8.708C52.1467 8.26 52.6694 8.036 53.2854 8.036C53.9014 8.036 54.424 8.26 54.8534 8.708C55.3014 9.13733 55.5254 9.66 55.5254 10.276C55.5254 10.892 55.3014 11.4147 54.8534 11.844C54.424 12.2733 53.9014 12.488 53.2854 12.488ZM51.3814 28.168C50.4854 28.168 49.7574 27.888 49.1974 27.328C48.656 26.768 48.3854 25.928 48.3854 24.808C48.3854 24.3413 48.46 23.7347 48.6094 22.988L50.5134 14H54.5454L52.5294 23.52C52.4547 23.8 52.4174 24.0987 52.4174 24.416C52.4174 24.7893 52.5014 25.06 52.6694 25.228C52.856 25.3773 53.1547 25.452 53.5654 25.452C54.1067 25.452 54.6107 25.228 55.0774 24.78C55.544 24.3133 55.88 23.716 56.0854 22.988H57.2614C56.5707 25.004 55.684 26.376 54.6014 27.104C53.5187 27.8133 52.4454 28.168 51.3814 28.168ZM66.1822 28.168C65.0436 28.168 64.2036 27.8693 63.6622 27.272C63.1396 26.656 62.8782 25.9 62.8782 25.004C62.8782 24.612 62.9249 24.1733 63.0182 23.688C63.1116 23.184 63.2049 22.6987 63.2982 22.232C63.4102 21.7653 63.4849 21.4667 63.5222 21.336C63.6716 20.6827 63.8116 20.0387 63.9422 19.404C64.0729 18.7693 64.1382 18.256 64.1382 17.864C64.1382 16.912 63.8022 16.436 63.1302 16.436C62.6449 16.436 62.2156 16.6787 61.8422 17.164C61.4689 17.6307 61.1702 18.2467 60.9462 19.012L59.0422 28H55.0102L57.9782 14H62.0102L61.7022 15.456C62.6356 14.4107 63.7276 13.888 64.9782 13.888C65.9302 13.888 66.6862 14.1493 67.2462 14.672C67.8062 15.1947 68.0862 15.988 68.0862 17.052C68.0862 17.5933 68.0209 18.2 67.8902 18.872C67.7596 19.5253 67.5729 20.328 67.3302 21.28C67.1809 21.8587 67.0409 22.428 66.9102 22.988C66.7982 23.5293 66.7422 23.9587 66.7422 24.276C66.7422 24.6493 66.8262 24.9387 66.9942 25.144C67.1622 25.3493 67.4516 25.452 67.8622 25.452C68.4222 25.452 68.8702 25.256 69.2062 24.864C69.5422 24.4533 69.8782 23.828 70.2142 22.988H71.3902C70.6996 25.0413 69.8969 26.4227 68.9822 27.132C68.0862 27.8227 67.1529 28.168 66.1822 28.168ZM80.7389 28.168C79.5816 28.168 78.7043 27.8973 78.1069 27.356C77.5096 26.796 77.2109 26.0027 77.2109 24.976C77.2109 24.528 77.2669 24.0427 77.3789 23.52L77.6029 22.428C77.6776 22.1107 77.7149 21.7653 77.7149 21.392C77.7149 20.496 77.3789 20.048 76.7069 20.048C76.4083 20.048 76.0909 20.132 75.7549 20.3C75.4376 20.468 75.0643 20.7293 74.6349 21.084L73.1789 28H69.1469L73.2069 8.96L77.3509 8.4L75.2509 18.256L80.6549 14H83.4269L77.8269 17.892C78.1069 17.8173 78.4149 17.78 78.7509 17.78C79.7589 17.78 80.5243 18.088 81.0469 18.704C81.5696 19.32 81.8309 20.104 81.8309 21.056C81.8309 21.448 81.7936 21.8027 81.7189 22.12L81.4109 23.52C81.3176 23.856 81.2709 24.1547 81.2709 24.416C81.2709 25.1067 81.6349 25.452 82.3629 25.452C82.7736 25.452 83.0349 25.424 83.1469 25.368C83.2589 25.312 83.3243 25.284 83.3429 25.284C83.3056 25.9 83.1283 26.4227 82.8109 26.852C82.5123 27.2813 82.1576 27.608 81.7469 27.832C81.3549 28.056 81.0189 28.168 80.7389 28.168ZM90.278 28.504C89.102 28.504 88.066 28.2987 87.17 27.888C86.274 27.4773 85.5833 26.908 85.098 26.18C84.6126 25.4333 84.37 24.5747 84.37 23.604C84.37 22.7827 84.538 22.036 84.874 21.364C85.2286 20.692 85.6953 20.16 86.274 19.768C86.8713 19.376 87.5246 19.18 88.234 19.18C88.8873 19.18 89.438 19.348 89.886 19.684C90.334 20.0013 90.614 20.4493 90.726 21.028C89.7553 21.028 88.9806 21.2893 88.402 21.812C87.8233 22.316 87.534 23.0067 87.534 23.884C87.534 24.6867 87.7766 25.3307 88.262 25.816C88.7473 26.3013 89.3913 26.544 90.194 26.544C91.1833 26.544 91.9953 26.2173 92.63 25.564C93.2833 24.892 93.61 24.052 93.61 23.044C93.61 22.1667 93.3673 21.336 92.882 20.552C92.3966 19.768 91.6686 18.816 90.698 17.696C89.69 16.5387 88.9246 15.5493 88.402 14.728C87.898 13.888 87.646 12.9733 87.646 11.984C87.646 11.0133 87.9166 10.1453 88.458 9.38C88.9993 8.596 89.746 7.98 90.698 7.532C91.65 7.084 92.7233 6.86 93.918 6.86C95.43 6.86 96.634 7.21467 97.53 7.924C98.4446 8.63333 98.902 9.58533 98.902 10.78C98.902 11.564 98.706 12.1987 98.314 12.684C97.922 13.1693 97.4086 13.412 96.774 13.412C96.0646 13.412 95.4953 13.1227 95.066 12.544C95.4206 12.2827 95.7006 11.9373 95.906 11.508C96.1113 11.0787 96.214 10.6307 96.214 10.164C96.214 9.56667 96.0366 9.09067 95.682 8.736C95.3273 8.38133 94.842 8.204 94.226 8.204C93.4793 8.204 92.8633 8.47467 92.378 9.016C91.9113 9.53867 91.678 10.2107 91.678 11.032C91.678 11.7787 91.8926 12.4787 92.322 13.132C92.7513 13.7667 93.4233 14.588 94.338 15.596C95.0846 16.3987 95.682 17.0893 96.13 17.668C96.5966 18.2467 96.9886 18.9187 97.306 19.684C97.642 20.4307 97.81 21.2427 97.81 22.12C97.81 23.3147 97.474 24.3973 96.802 25.368C96.1486 26.3387 95.2433 27.104 94.086 27.664C92.9473 28.224 91.678 28.504 90.278 28.504ZM109.495 28.168C108.356 28.168 107.516 27.8693 106.975 27.272C106.452 26.656 106.191 25.9 106.191 25.004C106.191 24.612 106.237 24.1733 106.331 23.688C106.424 23.184 106.517 22.6987 106.611 22.232C106.723 21.7653 106.797 21.4667 106.835 21.336C106.984 20.6827 107.124 20.0387 107.255 19.404C107.385 18.7693 107.451 18.256 107.451 17.864C107.451 16.912 107.115 16.436 106.443 16.436C105.957 16.436 105.528 16.6787 105.155 17.164C104.781 17.6307 104.483 18.2467 104.259 19.012L102.355 28H98.3227L102.383 8.96L106.527 8.4L105.015 15.456C105.948 14.4107 107.04 13.888 108.291 13.888C109.243 13.888 109.999 14.1493 110.559 14.672C111.119 15.1947 111.399 15.988 111.399 17.052C111.399 17.5933 111.333 18.2 111.203 18.872C111.072 19.5253 110.885 20.328 110.643 21.28C110.493 21.8587 110.353 22.428 110.223 22.988C110.111 23.5293 110.055 23.9587 110.055 24.276C110.055 24.6493 110.139 24.9387 110.307 25.144C110.475 25.3493 110.764 25.452 111.175 25.452C111.735 25.452 112.183 25.256 112.519 24.864C112.855 24.4533 113.191 23.828 113.527 22.988H114.703C114.012 25.0413 113.209 26.4227 112.295 27.132C111.399 27.8227 110.465 28.168 109.495 28.168ZM116.883 28.168C115.819 28.168 114.933 27.804 114.223 27.076C113.514 26.348 113.159 25.2093 113.159 23.66C113.159 22.2787 113.43 20.832 113.971 19.32C114.531 17.7893 115.353 16.5013 116.435 15.456C117.537 14.392 118.843 13.86 120.355 13.86C121.121 13.86 121.69 13.9907 122.063 14.252C122.437 14.5133 122.623 14.8587 122.623 15.288V15.484L122.931 14H126.963L124.947 23.52C124.873 23.8 124.835 24.0987 124.835 24.416C124.835 25.2187 125.218 25.62 125.983 25.62C126.506 25.62 126.954 25.3773 127.327 24.892C127.719 24.4067 128.027 23.772 128.251 22.988H129.427C128.737 25.004 127.878 26.376 126.851 27.104C125.843 27.8133 124.826 28.168 123.799 28.168C123.015 28.168 122.381 27.9533 121.895 27.524C121.429 27.076 121.149 26.432 121.055 25.592C120.514 26.3573 119.907 26.9827 119.235 27.468C118.582 27.9347 117.798 28.168 116.883 28.168ZM118.703 25.452C119.17 25.452 119.627 25.2373 120.075 24.808C120.542 24.36 120.859 23.7533 121.027 22.988L122.371 16.66C122.371 16.4173 122.278 16.184 122.091 15.96C121.905 15.7173 121.615 15.596 121.223 15.596C120.477 15.596 119.805 16.0347 119.207 16.912C118.61 17.7707 118.143 18.816 117.807 20.048C117.471 21.2613 117.303 22.3347 117.303 23.268C117.303 24.2013 117.434 24.7987 117.695 25.06C117.975 25.3213 118.311 25.452 118.703 25.452ZM130.166 14H134.198L133.834 15.736C134.468 15.176 135.038 14.7467 135.542 14.448C136.064 14.1493 136.624 14 137.222 14C137.819 14 138.286 14.2053 138.622 14.616C138.976 15.0267 139.154 15.5213 139.154 16.1C139.154 16.6413 138.976 17.1173 138.622 17.528C138.267 17.9387 137.772 18.144 137.138 18.144C136.727 18.144 136.447 18.0507 136.298 17.864C136.167 17.6587 136.064 17.3693 135.99 16.996C135.934 16.7533 135.878 16.576 135.822 16.464C135.766 16.352 135.663 16.296 135.514 16.296C135.122 16.296 134.786 16.38 134.506 16.548C134.244 16.6973 133.899 16.968 133.47 17.36L131.23 28H127.198L130.166 14ZM142.737 28.168C141.374 28.168 140.31 27.8133 139.545 27.104C138.78 26.376 138.397 25.2467 138.397 23.716C138.397 22.428 138.649 21.0093 139.153 19.46C139.657 17.9107 140.478 16.576 141.617 15.456C142.756 14.3173 144.202 13.748 145.957 13.748C148.01 13.748 149.037 14.644 149.037 16.436C149.037 17.4813 148.738 18.4427 148.141 19.32C147.544 20.1973 146.75 20.9067 145.761 21.448C144.772 21.9707 143.717 22.2693 142.597 22.344C142.56 22.7547 142.541 23.0347 142.541 23.184C142.541 24.7333 143.12 25.508 144.277 25.508C144.8 25.508 145.36 25.368 145.957 25.088C146.554 24.808 147.096 24.4533 147.581 24.024C147.077 26.7867 145.462 28.168 142.737 28.168ZM142.793 21C143.502 20.9813 144.165 20.748 144.781 20.3C145.416 19.852 145.92 19.2827 146.293 18.592C146.685 17.8827 146.881 17.1453 146.881 16.38C146.881 15.6147 146.648 15.232 146.181 15.232C145.528 15.232 144.874 15.8293 144.221 17.024C143.586 18.2 143.11 19.5253 142.793 21Z" fill="white"/>
<path d="M21.4447 16.5553C20.1477 15.259 18.3891 14.5307 16.5553 14.5307C14.7216 14.5307 12.9629 15.259 11.666 16.5553L6.77507 21.4447C5.47813 22.7416 4.74951 24.5006 4.74951 26.3348C4.74951 28.1689 5.47813 29.928 6.77507 31.2249C8.07201 32.5219 9.83104 33.2505 11.6652 33.2505C13.4993 33.2505 15.2584 32.5219 16.5553 31.2249L19 28.7803" stroke="#F0DC26" stroke-width="4" stroke-linecap="round" stroke-linejoin="round"/>
<path d="M16.5552 21.4447C17.8521 22.741 19.6108 23.4693 21.4445 23.4693C23.2782 23.4693 25.0369 22.741 26.3338 21.4447L31.2248 16.5553C32.5217 15.2584 33.2503 13.4993 33.2503 11.6652C33.2503 9.83104 32.5217 8.07201 31.2248 6.77507C29.9278 5.47813 28.1688 4.74951 26.3346 4.74951C24.5005 4.74951 22.7414 5.47813 21.4445 6.77507L18.9998 9.21973" stroke="#F0DC26" stroke-width="4" stroke-linecap="round" stroke-linejoin="round"/>
</svg>
