<svg width="20" height="20" viewBox="0 0 20 20" fill="none" xmlns="http://www.w3.org/2000/svg">
<path fill-rule="evenodd" clip-rule="evenodd" d="M13.3332 7.49996C13.3332 8.38401 12.982 9.23186 12.3569 9.85698C11.7317 10.4821 10.8839 10.8333 9.99984 10.8333C9.11578 10.8333 8.26794 10.4821 7.64281 9.85698C7.01769 9.23186 6.6665 8.38401 6.6665 7.49996C6.6665 6.6159 7.01769 5.76806 7.64281 5.14294C8.26794 4.51782 9.11578 4.16663 9.99984 4.16663C10.8839 4.16663 11.7317 4.51782 12.3569 5.14294C12.982 5.76806 13.3332 6.6159 13.3332 7.49996V7.49996ZM11.6665 7.49996C11.6665 7.94199 11.4909 8.36591 11.1783 8.67847C10.8658 8.99103 10.4419 9.16663 9.99984 9.16663C9.55781 9.16663 9.13389 8.99103 8.82133 8.67847C8.50877 8.36591 8.33317 7.94199 8.33317 7.49996C8.33317 7.05793 8.50877 6.63401 8.82133 6.32145C9.13389 6.00889 9.55781 5.83329 9.99984 5.83329C10.4419 5.83329 10.8658 6.00889 11.1783 6.32145C11.4909 6.63401 11.6665 7.05793 11.6665 7.49996V7.49996Z" fill="white"/>
<path fill-rule="evenodd" clip-rule="evenodd" d="M9.99992 0.833313C4.93742 0.833313 0.833252 4.93748 0.833252 9.99998C0.833252 15.0625 4.93742 19.1666 9.99992 19.1666C15.0624 19.1666 19.1666 15.0625 19.1666 9.99998C19.1666 4.93748 15.0624 0.833313 9.99992 0.833313ZM2.49992 9.99998C2.49992 11.7416 3.09409 13.345 4.08992 14.6183C4.78928 13.6999 5.6915 12.9556 6.72611 12.4436C7.76072 11.9315 8.8997 11.6656 10.0541 11.6666C11.1935 11.6656 12.3182 11.9246 13.3424 12.424C14.3665 12.9233 15.2632 13.6499 15.9641 14.5483C16.6861 13.6013 17.1723 12.496 17.3823 11.3238C17.5924 10.1516 17.5203 8.94626 17.172 7.80747C16.8237 6.66867 16.2093 5.62919 15.3795 4.77501C14.5497 3.92083 13.5285 3.27653 12.4002 2.8954C11.272 2.51428 10.0692 2.40729 8.89147 2.58329C7.71369 2.75929 6.59474 3.21322 5.62723 3.90752C4.65971 4.60183 3.87143 5.51654 3.32761 6.57598C2.78379 7.63541 2.50007 8.80912 2.49992 9.99998V9.99998ZM9.99992 17.5C8.27821 17.5026 6.60847 16.9103 5.27325 15.8233C5.81069 15.0539 6.52603 14.4257 7.35841 13.9922C8.19079 13.5587 9.11557 13.3326 10.0541 13.3333C10.9809 13.3326 11.8945 13.553 12.719 13.9762C13.5436 14.3994 14.2552 15.0132 14.7949 15.7666C13.4493 16.8889 11.7521 17.5024 9.99992 17.5V17.5Z" fill="white"/>
</svg>
