<svg width="20" height="20" viewBox="0 0 20 20" fill="none" xmlns="http://www.w3.org/2000/svg">
<path d="M9.92188 12.1875C10.502 12.1875 11.0584 11.957 11.4687 11.5468C11.8789 11.1365 12.1094 10.5801 12.1094 9.99998C12.1094 9.93592 12.1065 9.87244 12.101 9.80975L9.73164 12.1791C9.79434 12.1846 9.85762 12.1875 9.92188 12.1875ZM17.1625 3.23357L16.3281 2.39998C16.2988 2.3707 16.2591 2.35425 16.2177 2.35425C16.1763 2.35425 16.1365 2.3707 16.1072 2.39998L13.9721 4.53572C12.7942 3.93377 11.4702 3.63279 10 3.63279C6.24609 3.63279 3.44531 5.58787 1.59765 9.49803C1.52338 9.65529 1.48486 9.82705 1.48486 10.001C1.48486 10.1749 1.52338 10.3466 1.59765 10.5039C2.33593 12.059 3.22493 13.3054 4.26464 14.2432L2.19843 16.3086C2.16915 16.3379 2.1527 16.3776 2.1527 16.419C2.1527 16.4605 2.16915 16.5002 2.19843 16.5295L3.03222 17.3633C3.06152 17.3926 3.10125 17.409 3.14267 17.409C3.18409 17.409 3.22382 17.3926 3.25312 17.3633L17.1625 3.45466C17.177 3.44015 17.1886 3.42292 17.1964 3.40395C17.2043 3.38498 17.2083 3.36465 17.2083 3.34412C17.2083 3.32358 17.2043 3.30325 17.1964 3.28428C17.1886 3.26531 17.177 3.24808 17.1625 3.23357ZM6.48437 9.99998C6.48432 9.40624 6.63805 8.82261 6.9306 8.30595C7.22315 7.78928 7.64453 7.3572 8.1537 7.0518C8.66287 6.74639 9.24246 6.57807 9.83601 6.56324C10.4296 6.54841 11.0168 6.68757 11.5406 6.96717L10.591 7.91678C10.2081 7.79415 9.7987 7.77938 9.40789 7.87409C9.01708 7.9688 8.65991 8.16933 8.37557 8.45367C8.09122 8.73802 7.8907 9.09519 7.79599 9.486C7.70128 9.87681 7.71605 10.2862 7.83867 10.6691L6.88906 11.6187C6.62258 11.1208 6.48354 10.5647 6.48437 9.99998V9.99998Z" fill="#929292"/>
<path d="M18.4023 9.4961C17.7148 8.04818 16.8965 6.86752 15.9474 5.9541L13.1322 8.76954C13.3695 9.38988 13.4221 10.0657 13.2836 10.7153C13.1452 11.3649 12.8216 11.9605 12.3519 12.4301C11.8823 12.8998 11.2867 13.2234 10.6371 13.3618C9.98749 13.5003 9.3117 13.4477 8.69136 13.2104L6.30347 15.5983C7.41128 16.1109 8.64344 16.3672 9.99995 16.3672C13.7539 16.3672 16.5546 14.4121 18.4023 10.502C18.4766 10.3447 18.5151 10.173 18.5151 9.99904C18.5151 9.82512 18.4766 9.65336 18.4023 9.4961V9.4961Z" fill="#929292"/>
</svg>
