<svg width="31" height="31" viewBox="0 0 31 31" fill="none" xmlns="http://www.w3.org/2000/svg">
<path d="M5.8125 18.4062C5.04171 18.4062 4.3025 18.1001 3.75747 17.555C3.21244 17.01 2.90625 16.2708 2.90625 15.5C2.90625 14.7292 3.21244 13.99 3.75747 13.445C4.3025 12.8999 5.04171 12.5938 5.8125 12.5938C6.58329 12.5938 7.3225 12.8999 7.86753 13.445C8.41256 13.99 8.71875 14.7292 8.71875 15.5C8.71875 16.2708 8.41256 17.01 7.86753 17.555C7.3225 18.1001 6.58329 18.4062 5.8125 18.4062ZM15.5 18.4062C14.7292 18.4062 13.99 18.1001 13.445 17.555C12.8999 17.01 12.5938 16.2708 12.5938 15.5C12.5938 14.7292 12.8999 13.99 13.445 13.445C13.99 12.8999 14.7292 12.5938 15.5 12.5938C16.2708 12.5938 17.01 12.8999 17.555 13.445C18.1001 13.99 18.4062 14.7292 18.4062 15.5C18.4062 16.2708 18.1001 17.01 17.555 17.555C17.01 18.1001 16.2708 18.4062 15.5 18.4062ZM25.1875 18.4062C24.4167 18.4062 23.6775 18.1001 23.1325 17.555C22.5874 17.01 22.2812 16.2708 22.2812 15.5C22.2812 14.7292 22.5874 13.99 23.1325 13.445C23.6775 12.8999 24.4167 12.5938 25.1875 12.5938C25.9583 12.5938 26.6975 12.8999 27.2425 13.445C27.7876 13.99 28.0938 14.7292 28.0938 15.5C28.0938 16.2708 27.7876 17.01 27.2425 17.555C26.6975 18.1001 25.9583 18.4062 25.1875 18.4062Z" fill="#B7B2B2"/>
</svg>
